Coordinates
version=1
nRows=49
nColumns=12
inDegrees=yes

Units are S.I. units (second, meters, Newtons, ...)
Angles are in degrees

endheader
time	SC_y	SC_z	SC_x	AC_y	AC_z	AC_x	GH_y	GH_z	GH_yy	EL_x	PS_y
       0.0              -26.15          20.84          74.19          49.89         -5.487          3.284         -6.552          33.15          12.64          130.6          113.3
   0.04197              -26.16          20.84          74.19          49.88         -5.486          3.284         -6.532          33.14          12.62          130.6          113.3
   0.08394              -26.16          20.84          74.18          49.88         -5.484          3.285         -6.511          33.14           12.6          130.6          113.3
    0.1259              -26.16          20.85          74.17          49.88         -5.482          3.285         -6.488          33.13          12.58          130.6          113.3
    0.1679              -26.16          20.85          74.16          49.88          -5.48          3.286         -6.464          33.13          12.56          130.6          113.3
    0.2099              -26.17          20.85          74.16          49.87         -5.478          3.287         -6.438          33.12          12.53          130.5          113.3
    0.2518              -26.17          20.85          74.15          49.87         -5.476          3.287         -6.411          33.12          12.51          130.5          113.4
    0.2938              -26.17          20.85          74.14          49.87         -5.473          3.288         -6.381          33.11          12.48          130.5          113.4
    0.3358              -26.18          20.85          74.13          49.86         -5.471          3.289          -6.35           33.1          12.45          130.5          113.4
    0.3777              -26.18          20.86          74.12          49.86         -5.468           3.29         -6.316          33.09          12.42          130.5          113.4
    0.4197              -26.18          20.86          74.11          49.86         -5.465          3.291         -6.279          33.09          12.38          130.4          113.4
    0.4617              -26.19          20.86          74.09          49.85         -5.462          3.292          -6.24          33.08          12.34          130.4          113.4
    0.5037              -26.19          20.87          74.08          49.85         -5.459          3.293         -6.198          33.07           12.3          130.4          113.4
    0.5456               -26.2          20.87          74.07          49.84         -5.455          3.294         -6.153          33.06          12.26          130.4          113.4
    0.5876               -26.2          20.87          74.05          49.84         -5.451          3.296         -6.103          33.05          12.21          130.3          113.5
    0.6296              -26.21          20.88          74.03          49.83         -5.447          3.297          -6.05          33.04          12.16          130.3          113.5
    0.6716              -26.22          20.88          74.02          49.83         -5.442          3.299         -5.992          33.02          12.11          130.3          113.5
    0.7135              -26.22          20.88           74.0          49.82         -5.437            3.3         -5.928          33.01          12.05          130.2          113.5
    0.7555              -26.23          20.89          73.97          49.81         -5.432          3.302         -5.859          32.99          11.98          130.2          113.5
    0.7975              -26.24          20.89          73.95           49.8         -5.426          3.304         -5.784          32.98          11.91          130.1          113.6
    0.8394              -26.25           20.9          73.92          49.79         -5.419          3.306         -5.701          32.96          11.83          130.1          113.6
    0.8814              -26.26          20.91          73.89          49.78         -5.412          3.309         -5.609          32.94          11.74          130.0          113.6
    0.9234              -26.27          20.91          73.86          49.77         -5.403          3.311         -5.508          32.92          11.65          130.0          113.7
    0.9654              -26.28          20.92          73.83          49.76         -5.395          3.314         -5.396          32.89          11.54          129.9          113.7
     1.007               -26.3          20.93          73.79          49.75         -5.385          3.318         -5.272          32.87          11.42          129.8          113.7
     1.049              -26.31          20.94          73.74          49.73         -5.373          3.321         -5.133          32.83          11.29          129.8          113.8
     1.091              -26.33          20.95          73.69          49.72         -5.361          3.326         -4.977           32.8          11.14          129.7          113.8
     1.133              -26.35          20.96          73.64           49.7         -5.347           3.33         -4.803          32.76          10.98          129.6          113.9
     1.175              -26.37          20.98          73.58          49.67         -5.331          3.335         -4.605          32.72          10.79          129.4          114.0
     1.217               -26.4          20.99          73.51          49.65         -5.313          3.341          -4.38          32.67          10.58          129.3          114.0
     1.259              -26.43          21.01          73.42          49.62         -5.293          3.348         -4.124          32.61          10.33          129.2          114.1
     1.301              -26.46          21.03          73.33          49.59         -5.269          3.356          -3.83          32.55          10.06          129.0          114.2
     1.343               -26.5          21.05          73.22          49.55         -5.242          3.365         -3.491          32.47          9.733          128.8          114.3
     1.385              -26.54          21.08           73.1          49.51          -5.21          3.376         -3.097          32.39          9.359          128.5          114.5
     1.427              -26.59          21.11          72.95          49.46         -5.173          3.388         -2.635          32.28          8.921          128.3          114.6
     1.469              -26.65          21.15          72.78           49.4          -5.13          3.402         -2.091          32.17          8.404          127.9          114.8
     1.511              -26.73           21.2          72.58          49.33         -5.078           3.42         -1.445          32.02           7.79          127.6          115.0
     1.553              -26.81          21.25          72.33          49.24         -5.016           3.44          -0.67          31.85          7.055          127.1          115.3
     1.595              -26.92          21.32          72.04          49.14         -4.941          3.465         0.2674          31.65          6.164          126.5          115.6
     1.637              -27.05           21.4          71.67          49.02         -4.849          3.496          1.413          31.39          5.077          125.8          116.0
     1.679              -27.21           21.5          71.23          48.86         -4.736          3.533          2.826          31.08          3.735          125.0          116.5
     1.721              -27.41          21.62          70.67          48.67         -4.595           3.58          4.588           30.7          2.062          123.9          117.1
     1.763              -27.66          21.77          69.97          48.43         -4.417          3.639          6.809          30.21       -0.04654          122.6          117.8
     1.805              -27.97          21.97          69.08          48.12         -4.191          3.715          9.631          29.59         -2.726          120.9          118.8
     1.847              -28.38          22.22          67.93          47.73         -3.901          3.811          13.24          28.79         -6.157          118.8          120.0
     1.889               -28.9          22.55          66.47          47.22          -3.53          3.934          17.88          27.77         -10.56          116.0          121.5
     1.931              -29.57          22.96           64.6          46.57         -3.055          4.092           23.8          26.47         -16.18          112.5          123.5
     1.973               -30.4          23.48          62.24          45.76         -2.459           4.29          31.25          24.83         -23.25          108.0          126.0
     2.015              -31.42          24.12          59.37          44.77         -1.732          4.532          40.32          22.84         -31.87          102.6          129.1
